<svg width="300" height="300" viewBox="0 0 300 300" xmlns="http://www.w3.org/2000/svg" fill="none">
  <rect x="30" y="30" width="240" height="180" fill="#1F2A44" rx="12"/>
  <rect x="40" y="40" width="220" height="20" fill="#F97316"/>
  <rect x="40" y="70" width="20" height="40" fill="#EAB308"/>
  <rect x="65" y="70" width="15" height="40" fill="#10B981"/>
  <rect x="85" y="70" width="15" height="40" fill="#3B82F6"/>
  <rect x="105" y="70" width="30" height="20" fill="#F43F5E"/>
  <rect x="140" y="70" width="15" height="40" fill="#6366F1"/>
  <rect x="160" y="70" width="25" height="40" fill="#22C55E"/>
  <rect x="190" y="70" width="20" height="40" fill="#E879F9"/>
  <rect x="215" y="70" width="30" height="40" fill="#FBBF24"/>
  <rect x="40" y="115" width="220" height="20" fill="#F59E0B"/>

  <rect x="60" y="145" width="180" height="30" fill="#F43F5E"/>
  <rect x="110" y="150" width="80" height="20" fill="#FAF3E0"/>
  <line x1="150" y1="30" x2="150" y2="15" stroke="#1F2A44" stroke-width="4"/>
  <circle cx="150" cy="15" r="10" fill="#F59E0B"/>

  <rect x="90" y="190" width="120" height="15" fill="#4ADE80"/>
  <rect x="30" y="210" width="240" height="40" rx="10" fill="#1F2A44"/>
  <rect x="40" y="220" width="15" height="20" fill="#6366F1"/>
  <rect x="60" y="220" width="15" height="20" fill="#E879F9"/>
  <rect x="80" y="220" width="15" height="20" fill="#22C55E"/>
  <rect x="100" y="220" width="130" height="20" fill="#FBBF24"/>
</svg>
